<?xml version="1.0" encoding="UTF-8"?>
<svg id="Camada_1" data-name="Camada 1" xmlns="http://www.w3.org/2000/svg" xmlns:xlink="http://www.w3.org/1999/xlink" viewBox="0 0 1920 360.33">
  <defs>
    <style>
      .cls-1 {
        fill: url(#Gradiente_sem_nome_17);
      }

      .cls-2 {
        fill: #3d3e3e;
      }

      .cls-3 {
        fill: url(#Gradiente_sem_nome_56);
      }
    </style>
    <linearGradient id="Gradiente_sem_nome_17" data-name="Gradiente sem nome 17" x1="187.75" y1="322.68" x2="-44.9" y2="369.39" gradientUnits="userSpaceOnUse">
      <stop offset="0" stop-color="#517b9b"/>
      <stop offset=".23" stop-color="#496187"/>
      <stop offset=".49" stop-color="#434b78"/>
      <stop offset=".74" stop-color="#3f3f6f"/>
      <stop offset=".98" stop-color="#3e3b6c"/>
    </linearGradient>
    <linearGradient id="Gradiente_sem_nome_56" data-name="Gradiente sem nome 56" x1="257.02" y1="101.31" x2="14.39" y2="297.39" gradientUnits="userSpaceOnUse">
      <stop offset=".16" stop-color="#527c9b"/>
      <stop offset=".38" stop-color="#4c6a8a"/>
      <stop offset=".58" stop-color="#455677"/>
      <stop offset=".96" stop-color="#34445c"/>
    </linearGradient>
  </defs>
  <g>
    <path class="cls-2" d="M484.33,144.27l18.46-13.84s-15.83-19.77-51.75-19.77-48.46,16.15-48.46,38.56,19.77,31.98,44.49,39.89c24.72,7.91,33.61,14.5,33.61,26.38s-17.46,18.14-30.98,18.14-34.94-8.57-42.51-21.76c-1.66,1.66-17.46,13.52-17.46,13.52,0,0,20.43,27.03,61.98,27.03s56.02-19.12,56.02-40.87-16.48-31.98-52.41-44.49c-30.98-12.19-28.34-17.79-28.34-21.76s2.64-15.5,26.03-15.5,31.3,14.5,31.3,14.5v-.02Z"/>
    <path class="cls-2" d="M1509.69,144.27l18.46-13.84s-15.83-19.77-51.75-19.77-48.46,16.15-48.46,38.56,19.77,31.98,44.49,39.89c24.72,7.91,33.61,14.5,33.61,26.38s-17.46,18.14-30.98,18.14-34.94-8.57-42.51-21.76c-1.66,1.66-17.46,13.52-17.46,13.52,0,0,20.43,27.03,61.98,27.03s56.02-19.12,56.02-40.87-16.48-31.98-52.41-44.49c-30.98-12.19-28.34-17.79-28.34-21.76s2.64-15.5,26.03-15.5,31.3,14.5,31.3,14.5v-.02Z"/>
    <polygon class="cls-2" points="574.34 248.97 574.34 107.91 647.18 177.78 719.68 107.91 719.68 248.97 694.31 248.97 694.31 165.59 647.39 211.72 600.37 165.59 600.7 248.97 574.34 248.97"/>
    <polygon class="cls-2" points="1227.85 248.97 1254.88 248.97 1254.88 132.56 1302.79 132.78 1302.79 114.49 1180.83 114.49 1180.83 132.28 1228.74 132.28 1227.85 248.97"/>
    <polygon class="cls-2" points="1625.38 183.34 1625.38 249.58 1599.68 249.58 1599.68 113.77 1625.38 113.77 1625.38 175.1 1687.03 113.45 1721.3 113.45 1653.74 179.69 1723.78 249.74 1689.32 249.74 1625.38 183.34"/>
    <polygon class="cls-2" points="1780.24 113.45 1835.61 197.72 1835.61 249.74 1862.43 249.74 1862.43 198.16 1920 113.45 1889.22 113.45 1850.11 177.95 1809.24 113.45 1780.24 113.45"/>
    <path class="cls-2" d="M860.11,107.91l-73.83,141.06h29.67l9.55-22.41h69.21l10.22,22.41h29.34l-74.16-141.06h0ZM834.41,208.06l25.88-55.15,25.33,55.15h-51.21Z"/>
    <path class="cls-2" d="M1076.89,198.55s29.89-.87,29.89-42.18-52.3-43.08-52.3-43.08h-53.63v135.68h25.48v-46.04h24.61l32.96,46.04h30.32l-37.36-50.42h.02ZM1025.92,185.19v-53.17s54.5-5.93,54.5,26.6-54.5,26.6-54.5,26.6v-.02Z"/>
  </g>
  <path class="cls-1" d="M137.49,277.69c.76-.46,1.72-.46,2.48,0l136.22,78.13c2.19,1.18,1.35,4.52-1.14,4.51H2.41c-2.5,0-3.35-3.32-1.14-4.51l136.22-78.13h0Z"/>
  <path class="cls-3" d="M141.36,1.69l125.18,280.77c-1.3,8.89-7.43,15.3-12.64,18.99-3.76,2.67-8.72,2.94-12.73.67l-97.34-55.18c-3.17-1.8-7.05-1.79-10.21.04l-95.06,54.91c-5.71,3.3-12.95,2.33-17.55-2.4-5.02-5.15-8.75-12.41-8.75-16L136.12,1.71c1-2.27,4.22-2.27,5.21-.01h.03Z"/>
</svg>