<?xml version="1.0" encoding="UTF-8"?>
<svg id="Camada_1" data-name="Camada 1" xmlns="http://www.w3.org/2000/svg" viewBox="0 0 1920 360.33">
  <defs>
    <style>
      .cls-1 {
        fill: #fff;
      }
    </style>
  </defs>
  <g>
    <path class="cls-1" d="M137.47,277.69c.76-.46,1.73-.46,2.49,0l136.22,78.14c2.19,1.19,1.35,4.52-1.14,4.5H2.41c-2.49,0-3.36-3.33-1.14-4.5l136.22-78.14h-.03Z"/>
    <path class="cls-1" d="M141.33,1.68l125.19,280.76c-1.3,8.9-7.45,15.3-12.63,18.99-3.76,2.67-8.72,2.95-12.74.66l-97.33-55.19c-3.18-1.8-7.04-1.78-10.19.05l-95.04,54.91c-5.72,3.3-12.94,2.34-17.57-2.39-5.03-5.16-8.74-12.4-8.74-15.99L136.12,1.71c.99-2.26,4.22-2.29,5.21,0v-.03Z"/>
  </g>
  <g>
    <path class="cls-1" d="M484.33,144.27l18.46-13.84s-15.83-19.77-51.75-19.77-48.46,16.15-48.46,38.56,19.77,31.98,44.49,39.89c24.72,7.91,33.61,14.5,33.61,26.38s-17.46,18.14-30.98,18.14-34.94-8.57-42.51-21.76c-1.66,1.66-17.46,13.52-17.46,13.52,0,0,20.43,27.03,61.98,27.03s56.02-19.12,56.02-40.87-16.48-31.98-52.41-44.49c-30.98-12.19-28.34-17.79-28.34-21.76s2.64-15.5,26.03-15.5,31.3,14.5,31.3,14.5v-.02Z"/>
    <path class="cls-1" d="M1509.69,144.27l18.46-13.84s-15.83-19.77-51.75-19.77-48.46,16.15-48.46,38.56,19.77,31.98,44.49,39.89c24.72,7.91,33.61,14.5,33.61,26.38s-17.46,18.14-30.98,18.14-34.94-8.57-42.51-21.76c-1.66,1.66-17.46,13.52-17.46,13.52,0,0,20.43,27.03,61.98,27.03s56.02-19.12,56.02-40.87-16.48-31.98-52.41-44.49c-30.98-12.19-28.34-17.79-28.34-21.76s2.64-15.5,26.03-15.5,31.3,14.5,31.3,14.5v-.02Z"/>
    <polygon class="cls-1" points="574.34 248.97 574.34 107.91 647.17 177.78 719.68 107.91 719.68 248.97 694.3 248.97 694.3 165.59 647.39 211.72 600.37 165.59 600.7 248.97 574.34 248.97"/>
    <polygon class="cls-1" points="1227.85 248.97 1254.88 248.97 1254.88 132.56 1302.79 132.78 1302.79 114.49 1180.82 114.49 1180.82 132.28 1228.74 132.28 1227.85 248.97"/>
    <polygon class="cls-1" points="1625.38 183.34 1625.38 249.58 1599.68 249.58 1599.68 113.77 1625.38 113.77 1625.38 175.1 1687.03 113.45 1721.3 113.45 1653.74 179.7 1723.78 249.74 1689.32 249.74 1625.38 183.34"/>
    <polygon class="cls-1" points="1780.24 113.45 1835.61 197.72 1835.61 249.74 1862.43 249.74 1862.43 198.16 1920 113.45 1889.22 113.45 1850.11 177.95 1809.24 113.45 1780.24 113.45"/>
    <path class="cls-1" d="M860.11,107.91l-73.83,141.06h29.67l9.55-22.41h69.21l10.22,22.41h29.34l-74.16-141.06h0ZM834.41,208.06l25.88-55.15,25.33,55.15h-51.21Z"/>
    <path class="cls-1" d="M1076.88,198.55s29.89-.87,29.89-42.18-52.3-43.08-52.3-43.08h-53.63v135.68h25.48v-46.04h24.61l32.96,46.04h30.32l-37.36-50.42h.02ZM1025.92,185.19v-53.17s54.5-5.93,54.5,26.6-54.5,26.6-54.5,26.6v-.02Z"/>
  </g>
</svg>